ISO-10303-21;
HEADER;
FILE_DESCRIPTION (( 'STEP AP203' ),
    '1' );
FILE_NAME ('Assem1.STEP',
    '2025-04-07T10:46:29',
    ( '' ),
    ( '' ),
    'SwSTEP 2.0',
    'SolidWorks 2024',
    '' );
FILE_SCHEMA (( 'CONFIG_CONTROL_DESIGN' ));
ENDSEC;

DATA;
#1 = EDGE_LOOP ( 'NONE', ( #342, #330, #328, #235 ) ) ;
#2 = DIRECTION ( 'NONE',  ( -1.000000000000000000, 0.000000000000000000, 0.000000000000000000 ) ) ;
#3 = ORIENTED_EDGE ( 'NONE', *, *, #623, .F. ) ;
#4 = APPROVAL_PERSON_ORGANIZATION ( #307, #123, #190 ) ;
#5 = DIRECTION ( 'NONE',  ( 1.000000000000000000, 0.000000000000000000, 0.000000000000000000 ) ) ;
#6 = SHAPE_REPRESENTATION_RELATIONSHIP ( 'NONE' , 'NONE' ,  #169, #590 ) ;
#7 = CARTESIAN_POINT ( 'NONE',  ( -24.00000000000001421, -54.99090833947010282, -20.00000000000000000 ) ) ;
#8 = ORIENTED_EDGE ( 'NONE', *, *, #281, .T. ) ;
#9 = DIRECTION ( 'NONE',  ( 1.000000000000000000, 0.000000000000000000, 0.000000000000000000 ) ) ;
#10 = ADVANCED_FACE ( 'NONE', ( #146, #87 ), #352, .F. ) ;
#11 = ORGANIZATION ( 'UNSPECIFIED', 'UNSPECIFIED', '' ) ;
#12 = APPROVAL_STATUS ( 'not_yet_approved' ) ;
#13 = ORIENTED_EDGE ( 'NONE', *, *, #163, .F. ) ;
#14 = DIRECTION ( 'NONE',  ( -0.000000000000000000, -0.000000000000000000, -1.000000000000000000 ) ) ;
#15 = COORDINATED_UNIVERSAL_TIME_OFFSET ( 5, 30, .AHEAD. ) ;
#16 = ORIENTED_EDGE ( 'NONE', *, *, #20, .F. ) ;
#17 = LINE ( 'NONE', #160, #609 ) ;
#18 = AXIS2_PLACEMENT_3D ( 'NONE', #71, #708, #428 ) ;
#19 = SHAPE_DEFINITION_REPRESENTATION ( #197, #220 ) ;
#20 = EDGE_CURVE ( 'NONE', #560, #602, #156, .T. ) ;
#21 = APPROVAL_DATE_TIME ( #471, #100 ) ;
#22 = PERSON ( 'UNSPECIFIED', 'UNSPECIFIED', 'UNSPECIFIED', ('UNSPECIFIED'), ('UNSPECIFIED'), ('UNSPECIFIED') ) ;
#23 = CC_DESIGN_PERSON_AND_ORGANIZATION_ASSIGNMENT ( #355, #474, ( #660 ) ) ;
#24 = CARTESIAN_POINT ( 'NONE',  ( 250.0000000000000000, 0.000000000000000000, 34.00000000000000000 ) ) ;
#25 = APPLICATION_PROTOCOL_DEFINITION ( 'international standard', 'config_control_design', 1994, #625 ) ;
#26 = CARTESIAN_POINT ( 'NONE',  ( -65.99999999999921840, -36.66060555964708101, 20.00000000000000000 ) ) ;
#27 = DIRECTION ( 'NONE',  ( 0.000000000000000000, 0.000000000000000000, 1.000000000000000000 ) ) ;
#28 = DATE_TIME_ROLE ( 'creation_date' ) ;
#29 = APPROVAL_PERSON_ORGANIZATION ( #363, #322, #144 ) ;
#30 = PLANE ( 'NONE',  #431 ) ;
#31 = DIRECTION ( 'NONE',  ( -0.000000000000000000, -0.000000000000000000, -1.000000000000000000 ) ) ;
#32 = AXIS2_PLACEMENT_3D ( 'NONE', #295, #467, #408 ) ;
#33 =( LENGTH_UNIT ( ) NAMED_UNIT ( * ) SI_UNIT ( .MILLI., .METRE. ) );
#34 = CALENDAR_DATE ( 2025, 7, 4 ) ;
#35 = APPROVAL ( #572, 'UNKNOWN' ) ;
#36 = PRODUCT_DEFINITION ( 'UNKNOWN', '', #55, #57 ) ;
#37 = APPROVAL_STATUS ( 'not_yet_approved' ) ;
#38 = DATE_AND_TIME ( #34, #186 ) ;
#39 = ORIENTED_EDGE ( 'NONE', *, *, #391, .T. ) ;
#40 = DIRECTION ( 'NONE',  ( 1.000000000000000000, 0.000000000000000000, -3.491481338843133355E-15 ) ) ;
#41 = COORDINATED_UNIVERSAL_TIME_OFFSET ( 5, 30, .AHEAD. ) ;
#42 = EDGE_CURVE ( 'NONE', #674, #616, #193, .T. ) ;
#43 = VECTOR ( 'NONE', #351, 1000.000000000000000 ) ;
#44 = PERSON_AND_ORGANIZATION ( #256, #399 ) ;
#45 = COORDINATED_UNIVERSAL_TIME_OFFSET ( 5, 30, .AHEAD. ) ;
#46 = COORDINATED_UNIVERSAL_TIME_OFFSET ( 5, 30, .AHEAD. ) ;
#47 = ADVANCED_FACE ( 'NONE', ( #131, #516 ), #30, .T. ) ;
#48 = PERSON_AND_ORGANIZATION_ROLE ( 'creator' ) ;
#49 = AXIS2_PLACEMENT_3D ( 'NONE', #127, #78, #539 ) ;
#50 = APPROVAL ( #519, 'UNKNOWN' ) ;
#51 = CC_DESIGN_PERSON_AND_ORGANIZATION_ASSIGNMENT ( #684, #566, ( #493 ) ) ;
#52 = DATE_AND_TIME ( #657, #215 ) ;
#53 = DIRECTION ( 'NONE',  ( 1.000000000000000000, 0.000000000000000000, 0.000000000000000000 ) ) ;
#54 = ORIENTED_EDGE ( 'NONE', *, *, #623, .T. ) ;
#55 = PRODUCT_DEFINITION_FORMATION_WITH_SPECIFIED_SOURCE ( 'ANY', '', #350, .NOT_KNOWN. ) ;
#56 = DIRECTION ( 'NONE',  ( 1.000000000000000000, 0.000000000000000000, 0.000000000000000000 ) ) ;
#57 = DESIGN_CONTEXT ( 'detailed design', #304, 'design' ) ;
#58 = CC_DESIGN_PERSON_AND_ORGANIZATION_ASSIGNMENT ( #524, #420, ( #622 ) ) ;
#59 = LOCAL_TIME ( 16, 16, 29.00000000000000000, #285 ) ;
#60 = APPROVAL ( #641, 'UNSPECIFIED' ) ;
#61 = VERTEX_POINT ( 'NONE', #506 ) ;
#62 = AXIS2_PLACEMENT_3D ( 'NONE', #225, #445, #270 ) ;
#63 = VERTEX_POINT ( 'NONE', #201 ) ;
#64 = CIRCLE ( 'NONE', #608, 39.99999999999999289 ) ;
#65 = CARTESIAN_POINT ( 'NONE',  ( -50.00000000000000000, -1.060107667984752945E-14, -20.00000000000000000 ) ) ;
#66 = DATE_AND_TIME ( #632, #686 ) ;
#67 = CARTESIAN_POINT ( 'NONE',  ( 34.82357018822457917, 4.264657376589242966E-15, 20.00000000000000000 ) ) ;
#68 = APPROVAL_STATUS ( 'not_yet_approved' ) ;
#69 = EDGE_CURVE ( 'NONE', #544, #671, #241, .T. ) ;
#70 = ORIENTED_EDGE ( 'NONE', *, *, #514, .F. ) ;
#71 = CARTESIAN_POINT ( 'NONE',  ( 0.000000000000000000, 0.000000000000000000, 0.000000000000000000 ) ) ;
#72 = SECURITY_CLASSIFICATION_LEVEL ( 'unclassified' ) ;
#73 = CC_DESIGN_PERSON_AND_ORGANIZATION_ASSIGNMENT ( #181, #128, ( #704 ) ) ;
#74 = ORIENTED_EDGE ( 'NONE', *, *, #42, .F. ) ;
#75 = APPROVAL ( #627, 'UNSPECIFIED' ) ;
#76 = LINE ( 'NONE', #293, #290 ) ;
#77 = DIRECTION ( 'NONE',  ( 0.000000000000000000, 0.000000000000000000, -1.000000000000000000 ) ) ;
#78 = DIRECTION ( 'NONE',  ( 0.000000000000000000, 0.000000000000000000, 1.000000000000000000 ) ) ;
#79 = PERSON_AND_ORGANIZATION_ROLE ( 'design_owner' ) ;
#80 = DIRECTION ( 'NONE',  ( 1.000000000000000000, 0.000000000000000000, -0.000000000000000000 ) ) ;
#81 = CARTESIAN_POINT ( 'NONE',  ( -65.99999999999920419, 36.66060555964706680, -20.00000000000000000 ) ) ;
#82 = CC_DESIGN_SECURITY_CLASSIFICATION ( #660, ( #622 ) ) ;
#83 = CARTESIAN_POINT ( 'NONE',  ( -131.2959181726238000, 11.75505219166894300, 60.00000000000085976 ) ) ;
#84 = PRODUCT_DEFINITION_SHAPE ( 'NONE', 'NONE',  #375 ) ;
#85 = APPROVAL_DATE_TIME ( #287, #586 ) ;
#86 = CARTESIAN_POINT ( 'NONE',  ( -34.82357018822457917, 0.000000000000000000, 20.00000000000000000 ) ) ;
#87 = FACE_BOUND ( 'NONE', #510, .T. ) ;
#88 = AXIS2_PLACEMENT_3D ( 'NONE', #543, #537, #540 ) ;
#89 = APPLICATION_PROTOCOL_DEFINITION ( 'international standard', 'config_control_design', 1994, #604 ) ;
#90 = LOCAL_TIME ( 16, 16, 29.00000000000000000, #185 ) ;
#91 = COORDINATED_UNIVERSAL_TIME_OFFSET ( 5, 30, .AHEAD. ) ;
#92 = DIRECTION ( 'NONE',  ( 3.491476543315907316E-15, -0.001657403177179234827, 0.9999986265064109148 ) ) ;
#93 = PERSON_AND_ORGANIZATION_ROLE ( 'classification_officer' ) ;
#94 = CARTESIAN_POINT ( 'NONE',  ( -65.99999999999921840, -36.66060555964708101, -20.00000000000000000 ) ) ;
#95 = EDGE_CURVE ( 'NONE', #556, #674, #349, .T. ) ;
#96 = CC_DESIGN_SECURITY_CLASSIFICATION ( #704, ( #710 ) ) ;
#97 = COORDINATED_UNIVERSAL_TIME_OFFSET ( 5, 30, .AHEAD. ) ;
#98 = LOCAL_TIME ( 16, 16, 29.00000000000000000, #291 ) ;
#99 = DIRECTION ( 'NONE',  ( -3.491481338843133355E-15, 0.000000000000000000, -1.000000000000000000 ) ) ;
#100 = APPROVAL ( #511, 'UNSPECIFIED' ) ;
#101 = DATE_TIME_ROLE ( 'classification_date' ) ;
#102 = AXIS2_PLACEMENT_3D ( 'NONE', #591, #324, #53 ) ;
#103 = DIRECTION ( 'NONE',  ( -0.000000000000000000, -0.000000000000000000, -1.000000000000000000 ) ) ;
#104 = ADVANCED_FACE ( 'NONE', ( #687 ), #460, .T. ) ;
#105 = PERSON_AND_ORGANIZATION ( #22, #11 ) ;
#106 = CARTESIAN_POINT ( 'NONE',  ( -65.99999999999921840, -36.66060555964708101, 20.00000000000000000 ) ) ;
#107 = VERTEX_POINT ( 'NONE', #405 ) ;
#108 = VERTEX_POINT ( 'NONE', #636 ) ;
#109 = LOCAL_TIME ( 16, 16, 29.00000000000000000, #311 ) ;
#110 = DIRECTION ( 'NONE',  ( 0.4000000000000000222, -0.9165151389911679880, 0.000000000000000000 ) ) ;
#111 = DIRECTION ( 'NONE',  ( -1.000000000000000000, 0.000000000000000000, 0.000000000000000000 ) ) ;
#112 = ORIENTED_EDGE ( 'NONE', *, *, #549, .F. ) ;
#113 = APPLICATION_CONTEXT ( 'configuration controlled 3d designs of mechanical parts and assemblies' ) ;
#114 = AXIS2_PLACEMENT_3D ( 'NONE', #567, #130, #633 ) ;
#115 = CARTESIAN_POINT ( 'NONE',  ( -65.99999999999920419, 36.66060555964706680, -20.00000000000000000 ) ) ;
#116 = CARTESIAN_POINT ( 'NONE',  ( -65.99999999999921840, -36.66060555964708101, -20.00000000000000000 ) ) ;
#117 = ORIENTED_EDGE ( 'NONE', *, *, #492, .T. ) ;
#118 = APPROVAL_DATE_TIME ( #502, #173 ) ;
#119 = DIRECTION ( 'NONE',  ( 1.000000000000000000, 0.000000000000000000, 0.000000000000000000 ) ) ;
#120 = CALENDAR_DATE ( 2025, 7, 4 ) ;
#121 = CC_DESIGN_PERSON_AND_ORGANIZATION_ASSIGNMENT ( #526, #422, ( #236 ) ) ;
#122 = EDGE_LOOP ( 'NONE', ( #389, #574 ) ) ;
#123 = APPROVAL ( #37, 'UNSPECIFIED' ) ;
#124 = DIRECTION ( 'NONE',  ( -1.000000000000000000, -0.000000000000000000, -0.000000000000000000 ) ) ;
#125 = APPROVAL_DATE_TIME ( #184, #323 ) ;
#126 = LOCAL_TIME ( 16, 16, 29.00000000000000000, #196 ) ;
#127 = CARTESIAN_POINT ( 'NONE',  ( -50.00000000000000000, -1.060107667984752945E-14, 20.00000000000000000 ) ) ;
#128 = PERSON_AND_ORGANIZATION_ROLE ( 'classification_officer' ) ;
#129 = PRODUCT_DEFINITION_SHAPE ( 'NONE', 'NONE',  #594 ) ;
#130 = DIRECTION ( 'NONE',  ( 1.000000000000000000, 0.000000000000000000, 0.000000000000000000 ) ) ;
#131 = FACE_OUTER_BOUND ( 'NONE', #600, .T. ) ;
#132 = EDGE_CURVE ( 'NONE', #61, #674, #64, .T. ) ;
#133 = DIRECTION ( 'NONE',  ( -1.000000000000000000, -0.000000000000000000, -0.000000000000000000 ) ) ;
#134 = PERSON_AND_ORGANIZATION ( #22, #11 ) ;
#135 = MECHANICAL_CONTEXT ( 'NONE', #653, 'mechanical' ) ;
#136 = CC_DESIGN_APPROVAL ( #587, ( #55 ) ) ;
#137 = FACE_OUTER_BOUND ( 'NONE', #449, .T. ) ;
#138 = PERSON_AND_ORGANIZATION_ROLE ( 'design_owner' ) ;
#139 = COORDINATED_UNIVERSAL_TIME_OFFSET ( 5, 30, .AHEAD. ) ;
#140 = AXIS2_PLACEMENT_3D ( 'NONE', #377, #547, #440 ) ;
#141 = AXIS2_PLACEMENT_3D ( 'NONE', #364, #568, #80 ) ;
#142 = VECTOR ( 'NONE', #453, 1000.000000000000114 ) ;
#143 = APPLICATION_PROTOCOL_DEFINITION ( 'international standard', 'config_control_design', 1994, #304 ) ;
#144 = APPROVAL_ROLE ( '' ) ;
#145 = EDGE_CURVE ( 'NONE', #107, #616, #296, .T. ) ;
#146 = FACE_OUTER_BOUND ( 'NONE', #662, .T. ) ;
#147 = DATE_AND_TIME ( #637, #437 ) ;
#148 = DATE_AND_TIME ( #646, #707 ) ;
#149 = CALENDAR_DATE ( 2025, 7, 4 ) ;
#150 = PERSON ( 'NAUO-PER2', 'UNSPECIFIED', 'UNSPECIFIED', ('UNSPECIFIED'), ('UNSPECIFIED'), ('UNSPECIFIED') ) ;
#151 = CC_DESIGN_PERSON_AND_ORGANIZATION_ASSIGNMENT ( #675, #79, ( #469 ) ) ;
#152 = CC_DESIGN_PERSON_AND_ORGANIZATION_ASSIGNMENT ( #413, #138, ( #563 ) ) ;
#153 = LOCAL_TIME ( 16, 16, 29.00000000000000000, #341 ) ;
#154 = AXIS2_PLACEMENT_3D ( 'NONE', #228, #14, #111 ) ;
#155 = DATE_AND_TIME ( #262, #343 ) ;
#156 = CIRCLE ( 'NONE', #360, 34.82357018822457917 ) ;
#157 = AXIS2_PLACEMENT_3D ( 'NONE', #83, #40, #631 ) ;
#158 =( REPRESENTATION_RELATIONSHIP ('NONE','NONE', #220, #588 ) REPRESENTATION_RELATIONSHIP_WITH_TRANSFORMATION ( #700 )SHAPE_REPRESENTATION_RELATIONSHIP( ) );
#159 = EDGE_CURVE ( 'NONE', #266, #108, #300, .T. ) ;
#160 = CARTESIAN_POINT ( 'NONE',  ( 34.82357018822457917, 4.264657376589242966E-15, 20.00000000000000000 ) ) ;
#161 = CYLINDRICAL_SURFACE ( 'NONE', #154, 34.82357018822457917 ) ;
#162 = CIRCLE ( 'NONE', #18, 34.00000000000000000 ) ;
#163 = EDGE_CURVE ( 'NONE', #544, #435, #654, .T. ) ;
#164 = DIRECTION ( 'NONE',  ( -0.000000000000000000, -0.000000000000000000, -1.000000000000000000 ) ) ;
#165 = PERSON_AND_ORGANIZATION_ROLE ( 'design_supplier' ) ;
#166 = DESIGN_CONTEXT ( 'detailed design', #604, 'design' ) ;
#167 = ORIENTED_EDGE ( 'NONE', *, *, #69, .T. ) ;
#168 = ORIENTED_EDGE ( 'NONE', *, *, #42, .T. ) ;
#169 = SHAPE_REPRESENTATION ( 'Part1', ( #194 ), #464 ) ;
#170 = AXIS2_PLACEMENT_3D ( 'NONE', #706, #697, #584 ) ;
#171 = ORIENTED_EDGE ( 'NONE', *, *, #159, .T. ) ;
#172 = ORIENTED_EDGE ( 'NONE', *, *, #265, .F. ) ;
#173 = APPROVAL ( #395, 'UNSPECIFIED' ) ;
#174 = CYLINDRICAL_SURFACE ( 'NONE', #140, 39.99999999999999289 ) ;
#175 = AXIS2_PLACEMENT_3D ( 'NONE', #496, #9, #379 ) ;
#176 = APPROVAL_ROLE ( '' ) ;
#177 = AXIS2_PLACEMENT_3D ( 'NONE', #690, #458, #681 ) ;
#178 = APPROVAL_ROLE ( '' ) ;
#179 = PLANE ( 'NONE',  #462 ) ;
#180 = APPROVAL_DATE_TIME ( #508, #75 ) ;
#181 = PERSON_AND_ORGANIZATION ( #150, #685 ) ;
#182 = ORIENTED_EDGE ( 'NONE', *, *, #265, .T. ) ;
#183 = CARTESIAN_POINT ( 'NONE',  ( -50.00000000000000000, -1.060107667984752945E-14, 20.00000000000000000 ) ) ;
#184 = DATE_AND_TIME ( #239, #126 ) ;
#185 = COORDINATED_UNIVERSAL_TIME_OFFSET ( 5, 30, .AHEAD. ) ;
#186 = LOCAL_TIME ( 16, 16, 29.00000000000000000, #91 ) ;
#187 = FACE_OUTER_BOUND ( 'NONE', #644, .T. ) ;
#188 = PERSON_AND_ORGANIZATION ( #22, #11 ) ;
#189 = APPROVAL_PERSON_ORGANIZATION ( #456, #75, #461 ) ;
#190 = APPROVAL_ROLE ( '' ) ;
#191 = CC_DESIGN_PERSON_AND_ORGANIZATION_ASSIGNMENT ( #645, #406, ( #350 ) ) ;
#192 = CARTESIAN_POINT ( 'NONE',  ( 0.000000000000000000, 0.000000000000000000, 20.00000000000000000 ) ) ;
#193 = LINE ( 'NONE', #94, #314 ) ;
#194 = AXIS2_PLACEMENT_3D ( 'NONE', #589, #498, #329 ) ;
#195 = CARTESIAN_POINT ( 'NONE',  ( 250.0000000000000000, 0.000000000000000000, 0.000000000000000000 ) ) ;
#196 = COORDINATED_UNIVERSAL_TIME_OFFSET ( 5, 30, .AHEAD. ) ;
#197 = PRODUCT_DEFINITION_SHAPE ( 'NONE', 'NONE',  #36 ) ;
#198 = DIRECTION ( 'NONE',  ( 0.000000000000000000, 0.000000000000000000, 1.000000000000000000 ) ) ;
#199 = APPROVAL_ROLE ( '' ) ;
#200 = SECURITY_CLASSIFICATION_LEVEL ( 'unclassified' ) ;
#201 = CARTESIAN_POINT ( 'NONE',  ( 250.0000000000000000, 4.163799117101000559E-15, -34.00000000000000000 ) ) ;
#202 = EDGE_CURVE ( 'NONE', #250, #592, #683, .T. ) ;
#203 = PERSON ( 'NAUO-PER3', 'UNSPECIFIED', 'UNSPECIFIED', ('UNSPECIFIED'), ('UNSPECIFIED'), ('UNSPECIFIED') ) ;
#204 = CONTEXT_DEPENDENT_SHAPE_REPRESENTATION ( #158, #639 ) ;
#205 = ORIENTED_EDGE ( 'NONE', *, *, #433, .F. ) ;
#206 = DESIGN_CONTEXT ( 'detailed design', #338, 'design' ) ;
#207 = DATE_TIME_ROLE ( 'classification_date' ) ;
#208 = ITEM_DEFINED_TRANSFORMATION ( 'NONE', 'NONE', #157,  #194 ) ;
#209 = CC_DESIGN_SECURITY_CLASSIFICATION ( #523, ( #55 ) ) ;
#210 = CALENDAR_DATE ( 2025, 7, 4 ) ;
#211 = CONTEXT_DEPENDENT_SHAPE_REPRESENTATION ( #485, #472 ) ;
#212 = LOCAL_TIME ( 16, 16, 29.00000000000000000, #97 ) ;
#213 = AXIS2_PLACEMENT_3D ( 'NONE', #192, #628, #56 ) ;
#214 = PERSON_AND_ORGANIZATION ( #22, #11 ) ;
#215 = LOCAL_TIME ( 16, 16, 29.00000000000000000, #327 ) ;
#216 = DIRECTION ( 'NONE',  ( 0.000000000000000000, 0.000000000000000000, -1.000000000000000000 ) ) ;
#217 = DIRECTION ( 'NONE',  ( -0.000000000000000000, -0.000000000000000000, -1.000000000000000000 ) ) ;
#218 = ORIENTED_EDGE ( 'NONE', *, *, #315, .F. ) ;
#219 = CC_DESIGN_SECURITY_CLASSIFICATION ( #525, ( #493 ) ) ;
#220 = SHAPE_REPRESENTATION ( 'Assem1', ( #170, #486, #157, #642 ), #694 ) ;
#221 = PERSON_AND_ORGANIZATION_ROLE ( 'classification_officer' ) ;
#222 = ORIENTED_EDGE ( 'NONE', *, *, #132, .T. ) ;
#223 = LINE ( 'NONE', #438, #546 ) ;
#224 = LOCAL_TIME ( 16, 16, 29.00000000000000000, #15 ) ;
#225 = CARTESIAN_POINT ( 'NONE',  ( 0.000000000000000000, 0.000000000000000000, 20.00000000000000000 ) ) ;
#226 = EDGE_LOOP ( 'NONE', ( #381, #182, #443, #606 ) ) ;
#227 = CC_DESIGN_DATE_AND_TIME_ASSIGNMENT ( #66, #282, ( #375 ) ) ;
#228 = CARTESIAN_POINT ( 'NONE',  ( 0.000000000000000000, 0.000000000000000000, 20.00000000000000000 ) ) ;
#229 = APPROVAL_ROLE ( '' ) ;
#230 = APPROVAL_DATE_TIME ( #308, #50 ) ;
#231 = ORIENTED_EDGE ( 'NONE', *, *, #638, .T. ) ;
#232 = CIRCLE ( 'NONE', #321, 34.82357018822457917 ) ;
#233 = AXIS2_PLACEMENT_3D ( 'NONE', #491, #5, #77 ) ;
#234 = LINE ( 'NONE', #668, #423 ) ;
#235 = ORIENTED_EDGE ( 'NONE', *, *, #145, .T. ) ;
#236 = SECURITY_CLASSIFICATION ( '', '', #248 ) ;
#237 = APPLICATION_PROTOCOL_DEFINITION ( 'international standard', 'config_control_design', 1994, #113 ) ;
#238 = DIRECTION ( 'NONE',  ( -0.9165151389911679880, -0.4000000000000000222, -0.000000000000000000 ) ) ;
#239 = CALENDAR_DATE ( 2025, 7, 4 ) ;
#240 = CALENDAR_DATE ( 2025, 7, 4 ) ;
#241 = LINE ( 'NONE', #682, #528 ) ;
#242 = DIRECTION ( 'NONE',  ( -1.000000000000000000, -0.000000000000000000, -0.000000000000000000 ) ) ;
#243 = MECHANICAL_CONTEXT ( 'NONE', #625, 'mechanical' ) ;
#244 = ADVANCED_FACE ( 'NONE', ( #137 ), #396, .T. ) ;
#245 = SECURITY_CLASSIFICATION ( '', '', #366 ) ;
#246 = DIRECTION ( 'NONE',  ( 0.000000000000000000, 0.000000000000000000, 1.000000000000000000 ) ) ;
#247 = LOCAL_TIME ( 16, 16, 29.00000000000000000, #297 ) ;
#248 = SECURITY_CLASSIFICATION_LEVEL ( 'unclassified' ) ;
#249 = CIRCLE ( 'NONE', #49, 39.99999999999999289 ) ;
#250 = VERTEX_POINT ( 'NONE', #354 ) ;
#251 = AXIS2_PLACEMENT_3D ( 'NONE', #551, #110, #614 ) ;
#252 = CARTESIAN_POINT ( 'NONE',  ( 250.0000000000000000, 0.000000000000000000, 0.000000000000000000 ) ) ;
#253 = APPLICATION_PROTOCOL_DEFINITION ( 'international standard', 'config_control_design', 1994, #338 ) ;
#254 = APPROVAL_DATE_TIME ( #579, #322 ) ;
#255 = ADVANCED_FACE ( 'NONE', ( #187 ), #288, .T. ) ;
#256 = PERSON ( 'NAUO-PER1', 'UNSPECIFIED', 'UNSPECIFIED', ('UNSPECIFIED'), ('UNSPECIFIED'), ('UNSPECIFIED') ) ;
#257 = LOCAL_TIME ( 16, 16, 29.00000000000000000, #45 ) ;
#258 = CALENDAR_DATE ( 2025, 7, 4 ) ;
#259 = ORIENTED_EDGE ( 'NONE', *, *, #433, .T. ) ;
#260 = CARTESIAN_POINT ( 'NONE',  ( 0.000000000000000000, 0.000000000000000000, 0.000000000000000000 ) ) ;
#261 = SHAPE_DEFINITION_REPRESENTATION ( #84, #588 ) ;
#262 = CALENDAR_DATE ( 2025, 7, 4 ) ;
#263 = EDGE_CURVE ( 'NONE', #108, #671, #619, .T. ) ;
#264 = CIRCLE ( 'NONE', #32, 60.00000000000001421 ) ;
#265 = EDGE_CURVE ( 'NONE', #63, #283, #76, .T. ) ;
#266 = VERTEX_POINT ( 'NONE', #401 ) ;
#267 = APPROVAL_PERSON_ORGANIZATION ( #571, #60, #199 ) ;
#268 = CARTESIAN_POINT ( 'NONE',  ( -65.99999999999921840, -36.66060555964708101, 20.00000000000000000 ) ) ;
#269 = CC_DESIGN_PERSON_AND_ORGANIZATION_ASSIGNMENT ( #134, #517, ( #525 ) ) ;
#270 = DIRECTION ( 'NONE',  ( 1.000000000000000000, 0.000000000000000000, 0.000000000000000000 ) ) ;
#271 =( LENGTH_UNIT ( ) NAMED_UNIT ( * ) SI_UNIT ( .MILLI., .METRE. ) );
#272 = PERSON_AND_ORGANIZATION_ROLE ( 'creator' ) ;
#273 = ORIENTED_EDGE ( 'NONE', *, *, #538, .F. ) ;
#274 = CARTESIAN_POINT ( 'NONE',  ( 0.000000000000000000, 0.000000000000000000, 20.00000000000000000 ) ) ;
#275 = APPROVAL_PERSON_ORGANIZATION ( #688, #323, #229 ) ;
#276 = AXIS2_PLACEMENT_3D ( 'NONE', #195, #124, #451 ) ;
#277 =( NAMED_UNIT ( * ) SI_UNIT ( $, .STERADIAN. ) SOLID_ANGLE_UNIT ( ) );
#278 = ORIENTED_EDGE ( 'NONE', *, *, #69, .F. ) ;
#279 = DIRECTION ( 'NONE',  ( 1.000000000000000000, 0.000000000000000000, 0.000000000000000000 ) ) ;
#280 = CC_DESIGN_PERSON_AND_ORGANIZATION_ASSIGNMENT ( #44, #93, ( #245 ) ) ;
#281 = EDGE_CURVE ( 'NONE', #435, #556, #249, .T. ) ;
#282 = DATE_TIME_ROLE ( 'creation_date' ) ;
#283 = VERTEX_POINT ( 'NONE', #553 ) ;
#284 = DIRECTION ( 'NONE',  ( -0.9165151389911678770, 0.4000000000000000777, 0.000000000000000000 ) ) ;
#285 = COORDINATED_UNIVERSAL_TIME_OFFSET ( 5, 30, .AHEAD. ) ;
#286 = ORIENTED_EDGE ( 'NONE', *, *, #421, .T. ) ;
#287 = DATE_AND_TIME ( #555, #153 ) ;
#288 = CYLINDRICAL_SURFACE ( 'NONE', #370, 39.99999999999999289 ) ;
#289 = CALENDAR_DATE ( 2025, 7, 4 ) ;
#290 = VECTOR ( 'NONE', #242, 1000.000000000000000 ) ;
#291 = COORDINATED_UNIVERSAL_TIME_OFFSET ( 5, 30, .AHEAD. ) ;
#292 = ADVANCED_FACE ( 'NONE', ( #603 ), #174, .T. ) ;
#293 = CARTESIAN_POINT ( 'NONE',  ( 250.0000000000000000, 4.163799117101000559E-15, -34.00000000000000000 ) ) ;
#294 = CALENDAR_DATE ( 2025, 7, 4 ) ;
#295 = CARTESIAN_POINT ( 'NONE',  ( 0.000000000000000000, 0.000000000000000000, -20.00000000000000000 ) ) ;
#296 = LINE ( 'NONE', #507, #545 ) ;
#297 = COORDINATED_UNIVERSAL_TIME_OFFSET ( 5, 30, .AHEAD. ) ;
#298 = ITEM_DEFINED_TRANSFORMATION ( 'NONE', 'NONE', #642,  #194 ) ;
#299 = APPROVAL_PERSON_ORGANIZATION ( #44, #35, #527 ) ;
#300 = LINE ( 'NONE', #630, #479 ) ;
#301 = DIRECTION ( 'NONE',  ( 1.000000000000000000, 0.000000000000000000, 0.000000000000000000 ) ) ;
#302 = SECURITY_CLASSIFICATION_LEVEL ( 'unclassified' ) ;
#303 = CC_DESIGN_PERSON_AND_ORGANIZATION_ASSIGNMENT ( #424, #221, ( #523 ) ) ;
#304 = APPLICATION_CONTEXT ( 'configuration controlled 3d designs of mechanical parts and assemblies' ) ;
#305 = CARTESIAN_POINT ( 'NONE',  ( -65.99999999999920419, 36.66060555964706680, 20.00000000000000000 ) ) ;
#306 = VECTOR ( 'NONE', #133, 1000.000000000000000 ) ;
#307 = PERSON_AND_ORGANIZATION ( #22, #11 ) ;
#308 = DATE_AND_TIME ( #417, #583 ) ;
#309 = CC_DESIGN_DATE_AND_TIME_ASSIGNMENT ( #345, #28, ( #594 ) ) ;
#310 = CC_DESIGN_APPROVAL ( #173, ( #523 ) ) ;
#311 = COORDINATED_UNIVERSAL_TIME_OFFSET ( 5, 30, .AHEAD. ) ;
#312 = CC_DESIGN_APPROVAL ( #323, ( #525 ) ) ;
#313 = DATE_AND_TIME ( #693, #212 ) ;
#314 = VECTOR ( 'NONE', #629, 999.9999999999998863 ) ;
#315 = EDGE_CURVE ( 'NONE', #283, #592, #402, .T. ) ;
#316 = UNCERTAINTY_MEASURE_WITH_UNIT (LENGTH_MEASURE( 1.000000000000000082E-05 ), #434, 'distance_accuracy_value', 'NONE');
#317 = SECURITY_CLASSIFICATION_LEVEL ( 'unclassified' ) ;
#318 = DATE_AND_TIME ( #210, #257 ) ;
#319 = ADVANCED_FACE ( 'NONE', ( #598 ), #161, .F. ) ;
#320 = PERSON_AND_ORGANIZATION ( #22, #11 ) ;
#321 = AXIS2_PLACEMENT_3D ( 'NONE', #557, #436, #279 ) ;
#322 = APPROVAL ( #701, 'UNSPECIFIED' ) ;
#323 = APPROVAL ( #68, 'UNSPECIFIED' ) ;
#324 = DIRECTION ( 'NONE',  ( 0.000000000000000000, 0.000000000000000000, 1.000000000000000000 ) ) ;
#325 = ORIENTED_EDGE ( 'NONE', *, *, #444, .F. ) ;
#326 = CYLINDRICAL_SURFACE ( 'NONE', #387, 34.82357018822457917 ) ;
#327 = COORDINATED_UNIVERSAL_TIME_OFFSET ( 5, 30, .AHEAD. ) ;
#328 = ORIENTED_EDGE ( 'NONE', *, *, #391, .F. ) ;
#329 = DIRECTION ( 'NONE',  ( 1.000000000000000000, 0.000000000000000000, 0.000000000000000000 ) ) ;
#330 = ORIENTED_EDGE ( 'NONE', *, *, #159, .F. ) ;
#331 = CC_DESIGN_APPROVAL ( #75, ( #493 ) ) ;
#332 = CC_DESIGN_DATE_AND_TIME_ASSIGNMENT ( #38, #390, ( #704 ) ) ;
#333 = CC_DESIGN_PERSON_AND_ORGANIZATION_ASSIGNMENT ( #105, #165, ( #55 ) ) ;
#334 = AXIS2_PLACEMENT_3D ( 'NONE', #183, #246, #455 ) ;
#335 = ORIENTED_EDGE ( 'NONE', *, *, #638, .F. ) ;
#336 = CARTESIAN_POINT ( 'NONE',  ( -34.82357018822457917, 0.000000000000000000, -20.00000000000000000 ) ) ;
#337 = ORIENTED_EDGE ( 'NONE', *, *, #263, .T. ) ;
#338 = APPLICATION_CONTEXT ( 'configuration controlled 3d designs of mechanical parts and assemblies' ) ;
#339 = COORDINATED_UNIVERSAL_TIME_OFFSET ( 5, 30, .AHEAD. ) ;
#340 = DATE_TIME_ROLE ( 'classification_date' ) ;
#341 = COORDINATED_UNIVERSAL_TIME_OFFSET ( 5, 30, .AHEAD. ) ;
#342 = ORIENTED_EDGE ( 'NONE', *, *, #514, .T. ) ;
#343 = LOCAL_TIME ( 16, 16, 29.00000000000000000, #46 ) ;
#344 = FACE_OUTER_BOUND ( 'NONE', #666, .T. ) ;
#345 = DATE_AND_TIME ( #452, #224 ) ;
#346 = ORIENTED_EDGE ( 'NONE', *, *, #132, .F. ) ;
#347 = DIRECTION ( 'NONE',  ( -0.000000000000000000, -0.000000000000000000, -1.000000000000000000 ) ) ;
#348 = SHAPE_DEFINITION_REPRESENTATION ( #129, #169 ) ;
#349 = LINE ( 'NONE', #412, #43 ) ;
#350 = PRODUCT ( 'Assem1', 'Assem1', '', ( #135 ) ) ;
#351 = DIRECTION ( 'NONE',  ( -0.000000000000000000, -0.000000000000000000, -1.000000000000000000 ) ) ;
#352 = PLANE ( 'NONE',  #141 ) ;
#353 = LOCAL_TIME ( 16, 16, 29.00000000000000000, #386 ) ;
#354 = CARTESIAN_POINT ( 'NONE',  ( 250.0000000000000000, 0.000000000000000000, 34.00000000000000000 ) ) ;
#355 = PERSON_AND_ORGANIZATION ( #22, #11 ) ;
#356 = CARTESIAN_POINT ( 'NONE',  ( -65.99999999999920419, 36.66060555964706680, 20.00000000000000000 ) ) ;
#357 = EDGE_LOOP ( 'NONE', ( #596, #392, #231, #468 ) ) ;
#358 = CARTESIAN_POINT ( 'NONE',  ( -211.2959181726238000, 11.75505219166894300, 60.00000000000114397 ) ) ;
#359 = DATE_AND_TIME ( #582, #109 ) ;
#360 = AXIS2_PLACEMENT_3D ( 'NONE', #520, #27, #640 ) ;
#361 = AXIS2_PLACEMENT_3D ( 'NONE', #65, #494, #2 ) ;
#362 = DATE_AND_TIME ( #397, #90 ) ;
#363 = PERSON_AND_ORGANIZATION ( #22, #11 ) ;
#364 = CARTESIAN_POINT ( 'NONE',  ( 0.000000000000000000, 0.000000000000000000, -20.00000000000000000 ) ) ;
#365 = APPROVAL_DATE_TIME ( #147, #60 ) ;
#366 = SECURITY_CLASSIFICATION_LEVEL ( 'unclassified' ) ;
#367 = ADVANCED_FACE ( 'NONE', ( #344 ), #610, .F. ) ;
#368 = APPROVAL_PERSON_ORGANIZATION ( #181, #50, #403 ) ;
#369 = CC_DESIGN_APPROVAL ( #123, ( #375 ) ) ;
#370 = AXIS2_PLACEMENT_3D ( 'NONE', #504, #569, #565 ) ;
#371 = CLOSED_SHELL ( 'NONE', ( #104, #244, #411, #522 ) ) ;
#372 = CC_DESIGN_SECURITY_CLASSIFICATION ( #236, ( #711 ) ) ;
#373 =( REPRESENTATION_RELATIONSHIP ('NONE','NONE', #220, #588 ) REPRESENTATION_RELATIONSHIP_WITH_TRANSFORMATION ( #208 )SHAPE_REPRESENTATION_RELATIONSHIP( ) );
#374 = APPROVAL ( #678, 'UNKNOWN' ) ;
#375 = PRODUCT_DEFINITION ( 'UNKNOWN', '', #622, #166 ) ;
#376 = CYLINDRICAL_SURFACE ( 'NONE', #88, 60.00000000000001421 ) ;
#377 = CARTESIAN_POINT ( 'NONE',  ( -50.00000000000000000, -1.060107667984752945E-14, 20.00000000000000000 ) ) ;
#378 = CARTESIAN_POINT ( 'NONE',  ( 0.000000000000000000, 0.000000000000000000, 34.00000000000000000 ) ) ;
#379 = DIRECTION ( 'NONE',  ( 0.000000000000000000, 0.000000000000000000, -1.000000000000000000 ) ) ;
#380 = EDGE_LOOP ( 'NONE', ( #488, #13, #167, #54 ) ) ;
#381 = ORIENTED_EDGE ( 'NONE', *, *, #476, .F. ) ;
#382 = CC_DESIGN_APPROVAL ( #35, ( #245 ) ) ;
#383 = ORIENTED_EDGE ( 'NONE', *, *, #659, .T. ) ;
#384 =( NAMED_UNIT ( * ) PLANE_ANGLE_UNIT ( ) SI_UNIT ( $, .RADIAN. ) );
#385 = DIRECTION ( 'NONE',  ( 0.4000000000000001332, 0.9165151389911679880, -0.000000000000000000 ) ) ;
#386 = COORDINATED_UNIVERSAL_TIME_OFFSET ( 5, 30, .AHEAD. ) ;
#387 = AXIS2_PLACEMENT_3D ( 'NONE', #274, #164, #442 ) ;
#388 = FACE_OUTER_BOUND ( 'NONE', #695, .T. ) ;
#389 = ORIENTED_EDGE ( 'NONE', *, *, #538, .T. ) ;
#390 = DATE_TIME_ROLE ( 'classification_date' ) ;
#391 = EDGE_CURVE ( 'NONE', #107, #266, #532, .T. ) ;
#392 = ORIENTED_EDGE ( 'NONE', *, *, #549, .T. ) ;
#393 = MANIFOLD_SOLID_BREP ( 'Boss-Extrude1', #463 ) ;
#394 = LINE ( 'NONE', #356, #142 ) ;
#395 = APPROVAL_STATUS ( 'not_yet_approved' ) ;
#396 = CYLINDRICAL_SURFACE ( 'NONE', #533, 34.00000000000000000 ) ;
#397 = CALENDAR_DATE ( 2025, 7, 4 ) ;
#398 = CC_DESIGN_PERSON_AND_ORGANIZATION_ASSIGNMENT ( #620, #558, ( #493 ) ) ;
#399 = ORGANIZATION ( 'NAUO-ORG1', 'UNSPECIFIED', 'UNSPECIFIED' ) ;
#400 = LOCAL_TIME ( 16, 16, 29.00000000000000000, #473 ) ;
#401 = CARTESIAN_POINT ( 'NONE',  ( -24.00000000000000000, 54.99090833947007440, 20.00000000000000000 ) ) ;
#402 = CIRCLE ( 'NONE', #175, 34.00000000000000000 ) ;
#403 = APPROVAL_ROLE ( '' ) ;
#404 = DIRECTION ( 'NONE',  ( 0.9165151389911679880, -0.4000000000000000777, 0.000000000000000000 ) ) ;
#405 = CARTESIAN_POINT ( 'NONE',  ( -24.00000000000001421, -54.99090833947010282, 20.00000000000000000 ) ) ;
#406 = PERSON_AND_ORGANIZATION_ROLE ( 'design_owner' ) ;
#407 = COORDINATED_UNIVERSAL_TIME_OFFSET ( 5, 30, .AHEAD. ) ;
#408 = DIRECTION ( 'NONE',  ( 1.000000000000000000, 0.000000000000000000, 0.000000000000000000 ) ) ;
#409 = DIRECTION ( 'NONE',  ( 0.000000000000000000, 0.000000000000000000, 1.000000000000000000 ) ) ;
#410 = PRODUCT_RELATED_PRODUCT_CATEGORY ( 'detail', '', ( #563 ) ) ;
#411 = ADVANCED_FACE ( 'NONE', ( #487 ), #179, .T. ) ;
#412 = CARTESIAN_POINT ( 'NONE',  ( -65.99999999999921840, -36.66060555964708101, 20.00000000000000000 ) ) ;
#413 = PERSON_AND_ORGANIZATION ( #22, #11 ) ;
#414 = COORDINATED_UNIVERSAL_TIME_OFFSET ( 5, 30, .AHEAD. ) ;
#415 = APPROVAL_DATE_TIME ( #313, #35 ) ;
#416 = ORIENTED_EDGE ( 'NONE', *, *, #444, .T. ) ;
#417 = CALENDAR_DATE ( 2025, 7, 4 ) ;
#418 = CIRCLE ( 'NONE', #102, 34.82357018822457917 ) ;
#419 = APPLICATION_PROTOCOL_DEFINITION ( 'international standard', 'config_control_design', 1994, #653 ) ;
#420 = PERSON_AND_ORGANIZATION_ROLE ( 'creator' ) ;
#421 = EDGE_CURVE ( 'NONE', #602, #560, #232, .T. ) ;
#422 = PERSON_AND_ORGANIZATION_ROLE ( 'classification_officer' ) ;
#423 = VECTOR ( 'NONE', #103, 1000.000000000000000 ) ;
#424 = PERSON_AND_ORGANIZATION ( #22, #11 ) ;
#425 = CC_DESIGN_DATE_AND_TIME_ASSIGNMENT ( #359, #521, ( #245 ) ) ;
#426 = APPROVAL_STATUS ( 'not_yet_approved' ) ;
#427 = PRODUCT_RELATED_PRODUCT_CATEGORY ( 'detail', '', ( #350 ) ) ;
#428 = DIRECTION ( 'NONE',  ( 0.000000000000000000, 0.000000000000000000, -1.000000000000000000 ) ) ;
#429 =( NAMED_UNIT ( * ) PLANE_ANGLE_UNIT ( ) SI_UNIT ( $, .RADIAN. ) );
#430 = FACE_OUTER_BOUND ( 'NONE', #357, .T. ) ;
#431 = AXIS2_PLACEMENT_3D ( 'NONE', #691, #409, #634 ) ;
#432 = ORIENTED_EDGE ( 'NONE', *, *, #281, .F. ) ;
#433 = EDGE_CURVE ( 'NONE', #592, #283, #162, .T. ) ;
#434 =( LENGTH_UNIT ( ) NAMED_UNIT ( * ) SI_UNIT ( .MILLI., .METRE. ) );
#435 = VERTEX_POINT ( 'NONE', #661 ) ;
#436 = DIRECTION ( 'NONE',  ( 0.000000000000000000, 0.000000000000000000, 1.000000000000000000 ) ) ;
#437 = LOCAL_TIME ( 16, 16, 29.00000000000000000, #414 ) ;
#438 = CARTESIAN_POINT ( 'NONE',  ( -34.82357018822457917, 0.000000000000000000, 20.00000000000000000 ) ) ;
#439 = EDGE_LOOP ( 'NONE', ( #416, #665, #16, #335 ) ) ;
#440 = DIRECTION ( 'NONE',  ( -1.000000000000000000, 0.000000000000000000, 0.000000000000000000 ) ) ;
#441 = ORIENTED_EDGE ( 'NONE', *, *, #531, .T. ) ;
#442 = DIRECTION ( 'NONE',  ( -1.000000000000000000, 0.000000000000000000, 0.000000000000000000 ) ) ;
#443 = ORIENTED_EDGE ( 'NONE', *, *, #315, .T. ) ;
#444 = EDGE_CURVE ( 'NONE', #542, #593, #418, .T. ) ;
#445 = DIRECTION ( 'NONE',  ( 0.000000000000000000, 0.000000000000000000, 1.000000000000000000 ) ) ;
#446 = AXIS2_PLACEMENT_3D ( 'NONE', #106, #385, #284 ) ;
#447 =( GEOMETRIC_REPRESENTATION_CONTEXT ( 3 ) GLOBAL_UNCERTAINTY_ASSIGNED_CONTEXT ( ( #316 ) ) GLOBAL_UNIT_ASSIGNED_CONTEXT ( ( #434, #384, #277 ) ) REPRESENTATION_CONTEXT ( 'NONE', 'WORKASPACE' ) );
#448 = SHAPE_REPRESENTATION_RELATIONSHIP ( 'NONE' , 'NONE' ,  #588, #477 ) ;
#449 = EDGE_LOOP ( 'NONE', ( #172, #273, #669, #259 ) ) ;
#450 = MECHANICAL_CONTEXT ( 'NONE', #113, 'mechanical' ) ;
#451 = DIRECTION ( 'NONE',  ( 0.000000000000000000, 0.000000000000000000, 1.000000000000000000 ) ) ;
#452 = CALENDAR_DATE ( 2025, 7, 4 ) ;
#453 = DIRECTION ( 'NONE',  ( -0.9165151389911679880, -0.4000000000000000222, -0.000000000000000000 ) ) ;
#454 = ORIENTED_EDGE ( 'NONE', *, *, #145, .F. ) ;
#455 = DIRECTION ( 'NONE',  ( -1.000000000000000000, 0.000000000000000000, 0.000000000000000000 ) ) ;
#456 = PERSON_AND_ORGANIZATION ( #22, #11 ) ;
#457 = LOCAL_TIME ( 16, 16, 29.00000000000000000, #41 ) ;
#458 = DIRECTION ( 'NONE',  ( 1.000000000000000000, 0.000000000000000000, 0.000000000000000000 ) ) ;
#459 = APPROVAL_PERSON_ORGANIZATION ( #499, #586, #176 ) ;
#460 = CYLINDRICAL_SURFACE ( 'NONE', #276, 34.00000000000000000 ) ;
#461 = APPROVAL_ROLE ( '' ) ;
#462 = AXIS2_PLACEMENT_3D ( 'NONE', #615, #119, #216 ) ;
#463 = CLOSED_SHELL ( 'NONE', ( #319, #255, #47, #10, #702, #612, #292, #367, #679 ) ) ;
#464 =( GEOMETRIC_REPRESENTATION_CONTEXT ( 3 ) GLOBAL_UNCERTAINTY_ASSIGNED_CONTEXT ( ( #597 ) ) GLOBAL_UNIT_ASSIGNED_CONTEXT ( ( #271, #429, #535 ) ) REPRESENTATION_CONTEXT ( 'NONE', 'WORKASPACE' ) );
#465 = CC_DESIGN_DATE_AND_TIME_ASSIGNMENT ( #362, #207, ( #236 ) ) ;
#466 = CC_DESIGN_PERSON_AND_ORGANIZATION_ASSIGNMENT ( #705, #272, ( #55 ) ) ;
#467 = DIRECTION ( 'NONE',  ( 0.000000000000000000, 0.000000000000000000, 1.000000000000000000 ) ) ;
#468 = ORIENTED_EDGE ( 'NONE', *, *, #421, .F. ) ;
#469 = PRODUCT ( 'Part1', 'Part1', '', ( #450 ) ) ;
#470 = DIRECTION ( 'NONE',  ( -1.000000000000000000, -0.000000000000000000, -0.000000000000000000 ) ) ;
#471 = DATE_AND_TIME ( #294, #353 ) ;
#472 = PRODUCT_DEFINITION_SHAPE ( 'NONE', 'NONE',  #711 ) ;
#473 = COORDINATED_UNIVERSAL_TIME_OFFSET ( 5, 30, .AHEAD. ) ;
#474 = PERSON_AND_ORGANIZATION_ROLE ( 'classification_officer' ) ;
#475 = DIRECTION ( 'NONE',  ( 0.000000000000000000, 0.000000000000000000, 1.000000000000000000 ) ) ;
#476 = EDGE_CURVE ( 'NONE', #63, #250, #576, .T. ) ;
#477 = ADVANCED_BREP_SHAPE_REPRESENTATION ( '', ( #393, #194 ), #447 ) ;
#478 = PERSON_AND_ORGANIZATION ( #22, #11 ) ;
#479 = VECTOR ( 'NONE', #347, 1000.000000000000000 ) ;
#480 = CARTESIAN_POINT ( 'NONE',  ( -31.29591817262378228, 11.75505219166894300, 60.00000000000051159 ) ) ;
#481 = CC_DESIGN_DATE_AND_TIME_ASSIGNMENT ( #570, #340, ( #525 ) ) ;
#482 = PERSON_AND_ORGANIZATION ( #22, #11 ) ;
#483 = COORDINATED_UNIVERSAL_TIME_OFFSET ( 5, 30, .AHEAD. ) ;
#484 = APPROVAL_DATE_TIME ( #155, #587 ) ;
#485 =( REPRESENTATION_RELATIONSHIP ('NONE','NONE', #220, #169 ) REPRESENTATION_RELATIONSHIP_WITH_TRANSFORMATION ( #298 )SHAPE_REPRESENTATION_RELATIONSHIP( ) );
#486 = AXIS2_PLACEMENT_3D ( 'NONE', #480, #575, #99 ) ;
#487 = FACE_OUTER_BOUND ( 'NONE', #122, .T. ) ;
#488 = ORIENTED_EDGE ( 'NONE', *, *, #659, .F. ) ;
#489 = DIRECTION ( 'NONE',  ( -0.000000000000000000, -0.000000000000000000, -1.000000000000000000 ) ) ;
#490 = CC_DESIGN_APPROVAL ( #50, ( #704 ) ) ;
#491 = CARTESIAN_POINT ( 'NONE',  ( 250.0000000000000000, 0.000000000000000000, 0.000000000000000000 ) ) ;
#492 = EDGE_CURVE ( 'NONE', #266, #544, #394, .T. ) ;
#493 = PRODUCT_DEFINITION_FORMATION_WITH_SPECIFIED_SOURCE ( 'ANY', '', #469, .NOT_KNOWN. ) ;
#494 = DIRECTION ( 'NONE',  ( 0.000000000000000000, 0.000000000000000000, 1.000000000000000000 ) ) ;
#495 = CIRCLE ( 'NONE', #361, 39.99999999999999289 ) ;
#496 = CARTESIAN_POINT ( 'NONE',  ( 0.000000000000000000, 0.000000000000000000, 0.000000000000000000 ) ) ;
#497 = EDGE_LOOP ( 'NONE', ( #205, #218 ) ) ;
#498 = DIRECTION ( 'NONE',  ( 0.000000000000000000, 0.000000000000000000, 1.000000000000000000 ) ) ;
#499 = PERSON_AND_ORGANIZATION ( #22, #11 ) ;
#500 = CC_DESIGN_PERSON_AND_ORGANIZATION_ASSIGNMENT ( #482, #48, ( #36 ) ) ;
#501 = ORIENTED_EDGE ( 'NONE', *, *, #163, .T. ) ;
#502 = DATE_AND_TIME ( #552, #617 ) ;
#503 = PRODUCT_RELATED_PRODUCT_CATEGORY ( 'detail', '', ( #469 ) ) ;
#504 = CARTESIAN_POINT ( 'NONE',  ( -50.00000000000000000, -1.060107667984752945E-14, 20.00000000000000000 ) ) ;
#505 = CONTEXT_DEPENDENT_SHAPE_REPRESENTATION ( #373, #573 ) ;
#506 = CARTESIAN_POINT ( 'NONE',  ( -90.00000000000000000, -1.060107667984752945E-14, -20.00000000000000000 ) ) ;
#507 = CARTESIAN_POINT ( 'NONE',  ( -24.00000000000001421, -54.99090833947010282, 20.00000000000000000 ) ) ;
#508 = DATE_AND_TIME ( #120, #59 ) ;
#509 = LINE ( 'NONE', #26, #585 ) ;
#510 = EDGE_LOOP ( 'NONE', ( #698, #286 ) ) ;
#511 = APPROVAL_STATUS ( 'not_yet_approved' ) ;
#512 =( NAMED_UNIT ( * ) SI_UNIT ( $, .STERADIAN. ) SOLID_ANGLE_UNIT ( ) );
#513 = CC_DESIGN_DATE_AND_TIME_ASSIGNMENT ( #577, #647, ( #660 ) ) ;
#514 = EDGE_CURVE ( 'NONE', #616, #108, #264, .T. ) ;
#515 = CC_DESIGN_APPROVAL ( #322, ( #660 ) ) ;
#516 = FACE_BOUND ( 'NONE', #663, .T. ) ;
#517 = PERSON_AND_ORGANIZATION_ROLE ( 'classification_officer' ) ;
#518 = CIRCLE ( 'NONE', #213, 34.82357018822457917 ) ;
#519 = APPROVAL_STATUS ( 'not_yet_approved' ) ;
#520 = CARTESIAN_POINT ( 'NONE',  ( 0.000000000000000000, 0.000000000000000000, -20.00000000000000000 ) ) ;
#521 = DATE_TIME_ROLE ( 'classification_date' ) ;
#522 = ADVANCED_FACE ( 'NONE', ( #618 ), #559, .F. ) ;
#523 = SECURITY_CLASSIFICATION ( '', '', #317 ) ;
#524 = PERSON_AND_ORGANIZATION ( #22, #11 ) ;
#525 = SECURITY_CLASSIFICATION ( '', '', #72 ) ;
#526 = PERSON_AND_ORGANIZATION ( #203, #655 ) ;
#527 = APPROVAL_ROLE ( '' ) ;
#528 = VECTOR ( 'NONE', #624, 1000.000000000000000 ) ;
#529 = APPROVAL_PERSON_ORGANIZATION ( #526, #374, #578 ) ;
#530 = CC_DESIGN_APPROVAL ( #100, ( #594 ) ) ;
#531 = EDGE_CURVE ( 'NONE', #556, #107, #509, .T. ) ;
#532 = CIRCLE ( 'NONE', #62, 60.00000000000001421 ) ;
#533 = AXIS2_PLACEMENT_3D ( 'NONE', #252, #470, #198 ) ;
#534 = AXIS2_PLACEMENT_3D ( 'NONE', #260, #475, #301 ) ;
#535 =( NAMED_UNIT ( * ) SI_UNIT ( $, .STERADIAN. ) SOLID_ANGLE_UNIT ( ) );
#536 = ORIENTED_EDGE ( 'NONE', *, *, #263, .F. ) ;
#537 = DIRECTION ( 'NONE',  ( -0.000000000000000000, -0.000000000000000000, -1.000000000000000000 ) ) ;
#538 = EDGE_CURVE ( 'NONE', #250, #63, #672, .T. ) ;
#539 = DIRECTION ( 'NONE',  ( -1.000000000000000000, 0.000000000000000000, 0.000000000000000000 ) ) ;
#540 = DIRECTION ( 'NONE',  ( -1.000000000000000000, 0.000000000000000000, 0.000000000000000000 ) ) ;
#541 = ORIENTED_EDGE ( 'NONE', *, *, #531, .F. ) ;
#542 = VERTEX_POINT ( 'NONE', #86 ) ;
#543 = CARTESIAN_POINT ( 'NONE',  ( 0.000000000000000000, 0.000000000000000000, 20.00000000000000000 ) ) ;
#544 = VERTEX_POINT ( 'NONE', #305 ) ;
#545 = VECTOR ( 'NONE', #31, 1000.000000000000000 ) ;
#546 = VECTOR ( 'NONE', #217, 1000.000000000000000 ) ;
#547 = DIRECTION ( 'NONE',  ( -0.000000000000000000, -0.000000000000000000, -1.000000000000000000 ) ) ;
#548 = CC_DESIGN_APPROVAL ( #374, ( #236 ) ) ;
#549 = EDGE_CURVE ( 'NONE', #593, #542, #518, .T. ) ;
#550 = ORIENTED_EDGE ( 'NONE', *, *, #492, .F. ) ;
#551 = CARTESIAN_POINT ( 'NONE',  ( -65.99999999999920419, 36.66060555964706680, 20.00000000000000000 ) ) ;
#552 = CALENDAR_DATE ( 2025, 7, 4 ) ;
#553 = CARTESIAN_POINT ( 'NONE',  ( 0.000000000000000000, 4.163799117101000559E-15, -34.00000000000000000 ) ) ;
#554 = CC_DESIGN_APPROVAL ( #60, ( #36 ) ) ;
#555 = CALENDAR_DATE ( 2025, 7, 4 ) ;
#556 = VERTEX_POINT ( 'NONE', #268 ) ;
#557 = CARTESIAN_POINT ( 'NONE',  ( 0.000000000000000000, 0.000000000000000000, -20.00000000000000000 ) ) ;
#558 = PERSON_AND_ORGANIZATION_ROLE ( 'creator' ) ;
#559 = PLANE ( 'NONE',  #177 ) ;
#560 = VERTEX_POINT ( 'NONE', #336 ) ;
#561 = DIRECTION ( 'NONE',  ( -1.000000000000000000, 0.000000000000000000, 0.000000000000000000 ) ) ;
#562 = PERSON_AND_ORGANIZATION_ROLE ( 'creator' ) ;
#563 = PRODUCT ( 'cam1', 'cam1', '', ( #243 ) ) ;
#564 = EDGE_CURVE ( 'NONE', #593, #602, #17, .T. ) ;
#565 = DIRECTION ( 'NONE',  ( -1.000000000000000000, 0.000000000000000000, 0.000000000000000000 ) ) ;
#566 = PERSON_AND_ORGANIZATION_ROLE ( 'design_supplier' ) ;
#567 = CARTESIAN_POINT ( 'NONE',  ( 250.0000000000000000, 0.000000000000000000, 0.000000000000000000 ) ) ;
#568 = DIRECTION ( 'NONE',  ( 0.000000000000000000, 0.000000000000000000, 1.000000000000000000 ) ) ;
#569 = DIRECTION ( 'NONE',  ( -0.000000000000000000, -0.000000000000000000, -1.000000000000000000 ) ) ;
#570 = DATE_AND_TIME ( #289, #247 ) ;
#571 = PERSON_AND_ORGANIZATION ( #22, #11 ) ;
#572 = APPROVAL_STATUS ( 'not_yet_approved' ) ;
#573 = PRODUCT_DEFINITION_SHAPE ( 'NONE', 'NONE',  #710 ) ;
#574 = ORIENTED_EDGE ( 'NONE', *, *, #476, .T. ) ;
#575 = DIRECTION ( 'NONE',  ( 1.000000000000000000, 0.000000000000000000, -3.491481338843133355E-15 ) ) ;
#576 = CIRCLE ( 'NONE', #233, 34.00000000000000000 ) ;
#577 = DATE_AND_TIME ( #258, #400 ) ;
#578 = APPROVAL_ROLE ( '' ) ;
#579 = DATE_AND_TIME ( #149, #457 ) ;
#580 = CC_DESIGN_PERSON_AND_ORGANIZATION_ASSIGNMENT ( #689, #562, ( #375 ) ) ;
#581 = APPROVAL_DATE_TIME ( #148, #374 ) ;
#582 = CALENDAR_DATE ( 2025, 7, 4 ) ;
#583 = LOCAL_TIME ( 16, 16, 29.00000000000000000, #139 ) ;
#584 = DIRECTION ( 'NONE',  ( 1.000000000000000000, 0.000000000000000000, 0.000000000000000000 ) ) ;
#585 = VECTOR ( 'NONE', #404, 999.9999999999998863 ) ;
#586 = APPROVAL ( #12, 'UNSPECIFIED' ) ;
#587 = APPROVAL ( #426, 'UNSPECIFIED' ) ;
#588 = SHAPE_REPRESENTATION ( 'cam1', ( #194 ), #447 ) ;
#589 = CARTESIAN_POINT ( 'NONE',  ( 0.000000000000000000, 0.000000000000000000, 0.000000000000000000 ) ) ;
#590 = ADVANCED_BREP_SHAPE_REPRESENTATION ( '', ( #635, #194 ), #464 ) ;
#591 = CARTESIAN_POINT ( 'NONE',  ( 0.000000000000000000, 0.000000000000000000, 20.00000000000000000 ) ) ;
#592 = VERTEX_POINT ( 'NONE', #378 ) ;
#593 = VERTEX_POINT ( 'NONE', #67 ) ;
#594 = PRODUCT_DEFINITION ( 'UNKNOWN', '', #493, #206 ) ;
#595 = CARTESIAN_POINT ( 'NONE',  ( 34.82357018822457917, 4.264657376589242966E-15, -20.00000000000000000 ) ) ;
#596 = ORIENTED_EDGE ( 'NONE', *, *, #564, .F. ) ;
#597 = UNCERTAINTY_MEASURE_WITH_UNIT (LENGTH_MEASURE( 1.000000000000000082E-05 ), #271, 'distance_accuracy_value', 'NONE');
#598 = FACE_OUTER_BOUND ( 'NONE', #439, .T. ) ;
#599 = ORIENTED_EDGE ( 'NONE', *, *, #95, .T. ) ;
#600 = EDGE_LOOP ( 'NONE', ( #39, #117, #501, #8, #441 ) ) ;
#601 = PLANE ( 'NONE',  #251 ) ;
#602 = VERTEX_POINT ( 'NONE', #595 ) ;
#603 = FACE_OUTER_BOUND ( 'NONE', #380, .T. ) ;
#604 = APPLICATION_CONTEXT ( 'configuration controlled 3d designs of mechanical parts and assemblies' ) ;
#605 = ORIENTED_EDGE ( 'NONE', *, *, #95, .F. ) ;
#606 = ORIENTED_EDGE ( 'NONE', *, *, #202, .F. ) ;
#607 = VECTOR ( 'NONE', #238, 1000.000000000000114 ) ;
#608 = AXIS2_PLACEMENT_3D ( 'NONE', #676, #626, #561 ) ;
#609 = VECTOR ( 'NONE', #489, 1000.000000000000000 ) ;
#610 = PLANE ( 'NONE',  #446 ) ;
#611 = PERSON_AND_ORGANIZATION ( #22, #11 ) ;
#612 = ADVANCED_FACE ( 'NONE', ( #388 ), #601, .F. ) ;
#613 = DATE_AND_TIME ( #240, #98 ) ;
#614 = DIRECTION ( 'NONE',  ( 0.9165151389911679880, 0.4000000000000000222, 0.000000000000000000 ) ) ;
#615 = CARTESIAN_POINT ( 'NONE',  ( 250.0000000000000000, 0.000000000000000000, 0.000000000000000000 ) ) ;
#616 = VERTEX_POINT ( 'NONE', #7 ) ;
#617 = LOCAL_TIME ( 16, 16, 29.00000000000000000, #339 ) ;
#618 = FACE_OUTER_BOUND ( 'NONE', #497, .T. ) ;
#619 = LINE ( 'NONE', #81, #607 ) ;
#620 = PERSON_AND_ORGANIZATION ( #22, #11 ) ;
#621 = APPROVAL_DATE_TIME ( #613, #123 ) ;
#622 = PRODUCT_DEFINITION_FORMATION_WITH_SPECIFIED_SOURCE ( 'ANY', '', #563, .NOT_KNOWN. ) ;
#623 = EDGE_CURVE ( 'NONE', #671, #61, #495, .T. ) ;
#624 = DIRECTION ( 'NONE',  ( -0.000000000000000000, -0.000000000000000000, -1.000000000000000000 ) ) ;
#625 = APPLICATION_CONTEXT ( 'configuration controlled 3d designs of mechanical parts and assemblies' ) ;
#626 = DIRECTION ( 'NONE',  ( 0.000000000000000000, 0.000000000000000000, 1.000000000000000000 ) ) ;
#627 = APPROVAL_STATUS ( 'not_yet_approved' ) ;
#628 = DIRECTION ( 'NONE',  ( 0.000000000000000000, 0.000000000000000000, 1.000000000000000000 ) ) ;
#629 = DIRECTION ( 'NONE',  ( 0.9165151389911679880, -0.4000000000000000777, 0.000000000000000000 ) ) ;
#630 = CARTESIAN_POINT ( 'NONE',  ( -24.00000000000000000, 54.99090833947007440, 20.00000000000000000 ) ) ;
#631 = DIRECTION ( 'NONE',  ( -3.491481338843133355E-15, 0.000000000000000000, -1.000000000000000000 ) ) ;
#632 = CALENDAR_DATE ( 2025, 7, 4 ) ;
#633 = DIRECTION ( 'NONE',  ( 0.000000000000000000, 0.000000000000000000, -1.000000000000000000 ) ) ;
#634 = DIRECTION ( 'NONE',  ( 1.000000000000000000, 0.000000000000000000, -0.000000000000000000 ) ) ;
#635 = MANIFOLD_SOLID_BREP ( 'Boss-Extrude1', #371 ) ;
#636 = CARTESIAN_POINT ( 'NONE',  ( -24.00000000000000000, 54.99090833947007440, -20.00000000000000000 ) ) ;
#637 = CALENDAR_DATE ( 2025, 7, 4 ) ;
#638 = EDGE_CURVE ( 'NONE', #542, #560, #223, .T. ) ;
#639 = PRODUCT_DEFINITION_SHAPE ( 'NONE', 'NONE',  #709 ) ;
#640 = DIRECTION ( 'NONE',  ( 1.000000000000000000, 0.000000000000000000, 0.000000000000000000 ) ) ;
#641 = APPROVAL_STATUS ( 'not_yet_approved' ) ;
#642 = AXIS2_PLACEMENT_3D ( 'NONE', #358, #92, #692 ) ;
#643 = PERSON_AND_ORGANIZATION_ROLE ( 'design_supplier' ) ;
#644 = EDGE_LOOP ( 'NONE', ( #432, #383, #222, #605 ) ) ;
#645 = PERSON_AND_ORGANIZATION ( #22, #11 ) ;
#646 = CALENDAR_DATE ( 2025, 7, 4 ) ;
#647 = DATE_TIME_ROLE ( 'classification_date' ) ;
#648 = CC_DESIGN_SECURITY_CLASSIFICATION ( #245, ( #709 ) ) ;
#649 = CC_DESIGN_PERSON_AND_ORGANIZATION_ASSIGNMENT ( #478, #643, ( #622 ) ) ;
#650 = CC_DESIGN_DATE_AND_TIME_ASSIGNMENT ( #318, #703, ( #36 ) ) ;
#651 = CC_DESIGN_APPROVAL ( #586, ( #622 ) ) ;
#652 = APPROVAL_ROLE ( '' ) ;
#653 = APPLICATION_CONTEXT ( 'configuration controlled 3d designs of mechanical parts and assemblies' ) ;
#654 = CIRCLE ( 'NONE', #334, 39.99999999999999289 ) ;
#655 = ORGANIZATION ( 'NAUO-ORG3', 'UNSPECIFIED', 'UNSPECIFIED' ) ;
#656 = UNCERTAINTY_MEASURE_WITH_UNIT (LENGTH_MEASURE( 1.000000000000000082E-05 ), #33, 'distance_accuracy_value', 'NONE');
#657 = CALENDAR_DATE ( 2025, 7, 4 ) ;
#658 = APPROVAL_PERSON_ORGANIZATION ( #214, #587, #652 ) ;
#659 = EDGE_CURVE ( 'NONE', #435, #61, #234, .T. ) ;
#660 = SECURITY_CLASSIFICATION ( '', '', #200 ) ;
#661 = CARTESIAN_POINT ( 'NONE',  ( -90.00000000000000000, -1.060107667984752945E-14, 20.00000000000000000 ) ) ;
#662 = EDGE_LOOP ( 'NONE', ( #70, #74, #346, #3, #536 ) ) ;
#663 = EDGE_LOOP ( 'NONE', ( #325, #112 ) ) ;
#664 = FACE_OUTER_BOUND ( 'NONE', #1, .T. ) ;
#665 = ORIENTED_EDGE ( 'NONE', *, *, #564, .T. ) ;
#666 = EDGE_LOOP ( 'NONE', ( #168, #454, #541, #599 ) ) ;
#667 = APPROVAL_PERSON_ORGANIZATION ( #188, #100, #673 ) ;
#668 = CARTESIAN_POINT ( 'NONE',  ( -90.00000000000000000, -1.060107667984752945E-14, 20.00000000000000000 ) ) ;
#669 = ORIENTED_EDGE ( 'NONE', *, *, #202, .T. ) ;
#670 = CC_DESIGN_DATE_AND_TIME_ASSIGNMENT ( #52, #101, ( #523 ) ) ;
#671 = VERTEX_POINT ( 'NONE', #115 ) ;
#672 = CIRCLE ( 'NONE', #114, 34.00000000000000000 ) ;
#673 = APPROVAL_ROLE ( '' ) ;
#674 = VERTEX_POINT ( 'NONE', #116 ) ;
#675 = PERSON_AND_ORGANIZATION ( #22, #11 ) ;
#676 = CARTESIAN_POINT ( 'NONE',  ( -50.00000000000000000, -1.060107667984752945E-14, -20.00000000000000000 ) ) ;
#677 = PERSON_AND_ORGANIZATION_ROLE ( 'creator' ) ;
#678 = APPROVAL_STATUS ( 'not_yet_approved' ) ;
#679 = ADVANCED_FACE ( 'NONE', ( #430 ), #326, .F. ) ;
#680 = APPROVAL_PERSON_ORGANIZATION ( #320, #173, #178 ) ;
#681 = DIRECTION ( 'NONE',  ( 0.000000000000000000, 0.000000000000000000, -1.000000000000000000 ) ) ;
#682 = CARTESIAN_POINT ( 'NONE',  ( -65.99999999999920419, 36.66060555964706680, 20.00000000000000000 ) ) ;
#683 = LINE ( 'NONE', #24, #306 ) ;
#684 = PERSON_AND_ORGANIZATION ( #22, #11 ) ;
#685 = ORGANIZATION ( 'NAUO-ORG2', 'UNSPECIFIED', 'UNSPECIFIED' ) ;
#686 = LOCAL_TIME ( 16, 16, 29.00000000000000000, #407 ) ;
#687 = FACE_OUTER_BOUND ( 'NONE', #226, .T. ) ;
#688 = PERSON_AND_ORGANIZATION ( #22, #11 ) ;
#689 = PERSON_AND_ORGANIZATION ( #22, #11 ) ;
#690 = CARTESIAN_POINT ( 'NONE',  ( 0.000000000000000000, 0.000000000000000000, 0.000000000000000000 ) ) ;
#691 = CARTESIAN_POINT ( 'NONE',  ( 0.000000000000000000, 0.000000000000000000, 20.00000000000000000 ) ) ;
#692 = DIRECTION ( 'NONE',  ( 1.000000000000000000, 4.314083075427408311E-31, -3.491481338843144005E-15 ) ) ;
#693 = CALENDAR_DATE ( 2025, 7, 4 ) ;
#694 =( GEOMETRIC_REPRESENTATION_CONTEXT ( 3 ) GLOBAL_UNCERTAINTY_ASSIGNED_CONTEXT ( ( #656 ) ) GLOBAL_UNIT_ASSIGNED_CONTEXT ( ( #33, #699, #512 ) ) REPRESENTATION_CONTEXT ( 'NONE', 'WORKASPACE' ) );
#695 = EDGE_LOOP ( 'NONE', ( #337, #278, #550, #171 ) ) ;
#696 = CC_DESIGN_PERSON_AND_ORGANIZATION_ASSIGNMENT ( #611, #677, ( #594 ) ) ;
#697 = DIRECTION ( 'NONE',  ( 0.000000000000000000, 0.000000000000000000, 1.000000000000000000 ) ) ;
#698 = ORIENTED_EDGE ( 'NONE', *, *, #20, .T. ) ;
#699 =( NAMED_UNIT ( * ) PLANE_ANGLE_UNIT ( ) SI_UNIT ( $, .RADIAN. ) );
#700 = ITEM_DEFINED_TRANSFORMATION ( 'NONE', 'NONE', #486,  #194 ) ;
#701 = APPROVAL_STATUS ( 'not_yet_approved' ) ;
#702 = ADVANCED_FACE ( 'NONE', ( #664 ), #376, .T. ) ;
#703 = DATE_TIME_ROLE ( 'creation_date' ) ;
#704 = SECURITY_CLASSIFICATION ( '', '', #302 ) ;
#705 = PERSON_AND_ORGANIZATION ( #22, #11 ) ;
#706 = CARTESIAN_POINT ( 'NONE',  ( 0.000000000000000000, 0.000000000000000000, 0.000000000000000000 ) ) ;
#707 = LOCAL_TIME ( 16, 16, 29.00000000000000000, #483 ) ;
#708 = DIRECTION ( 'NONE',  ( 1.000000000000000000, 0.000000000000000000, 0.000000000000000000 ) ) ;
#709 = NEXT_ASSEMBLY_USAGE_OCCURRENCE ( 'NAUO1', ' ', ' ', #36, #375, $ ) ;
#710 = NEXT_ASSEMBLY_USAGE_OCCURRENCE ( 'NAUO2', ' ', ' ', #36, #375, $ ) ;
#711 = NEXT_ASSEMBLY_USAGE_OCCURRENCE ( 'NAUO3', ' ', ' ', #36, #594, $ ) ;
ENDSEC;
END-ISO-10303-21;
